<svg width="28" height="24" viewBox="0 0 28 24" fill="none" xmlns="http://www.w3.org/2000/svg">
<path d="M24.1494 3.88602C23.5629 3.2881 22.8667 2.81378 22.1003 2.49017C21.334 2.16656 20.5126 2 19.6831 2C18.8535 2 18.0321 2.16656 17.2658 2.49017C16.4994 2.81378 15.8032 3.2881 15.2167 3.88602L13.9997 5.12634L12.7826 3.88602C11.5981 2.67882 9.99152 2.00063 8.31633 2.00063C6.64114 2.00063 5.03455 2.67882 3.85001 3.88602C2.66547 5.09322 2 6.73053 2 8.43777C2 10.145 2.66547 11.7823 3.85001 12.9895L5.06705 14.2298L12.5721 21.8785C13.3561 22.6775 14.6432 22.6775 15.4272 21.8785L22.9323 14.2298L24.1494 12.9895C24.7361 12.3919 25.2015 11.6823 25.519 10.9013C25.8366 10.1203 26 9.28316 26 8.43777C26 7.59238 25.8366 6.75527 25.519 5.97426C25.2015 5.19326 24.7361 4.48366 24.1494 3.88602Z" stroke="black" stroke-width="3" stroke-linecap="round" stroke-linejoin="round"/>
</svg>
