<svg xmlns="http://www.w3.org/2000/svg" viewBox="0 0 1500 1500"><g id="Layer_1" data-name="Layer 1"><path d="M107,750c0,.26,0,.52,0,.78v-1.55C107,749.49,107,749.74,107,750Z" style="fill:#242f93"/><path d="M130.19,692.8c.11,2,.16,3.93.16,5.91V692.8Z" style="fill:#242f93"/><path d="M197.47,821.69h90.28a15.4,15.4,0,0,0,15.41-15.41V716A105.69,105.69,0,0,1,197.47,821.69Z" style="fill:#f79cc5"/><path d="M91.79,710.09H92c-.1,1.74-.16,3.48-.16,5.23v1.37A105.69,105.69,0,0,0,303.16,716q0-3-.16-5.91h.16v-93.5a5.89,5.89,0,0,0-5.88-5.89l-.46,0h-.07l-.33,0h-.07a49.87,49.87,0,0,0-43.07,49.43V716a55.81,55.81,0,1,1-111.61,0V660.21a49.85,49.85,0,0,0-43-49.43l-.12,0-.31,0h-.06l-.45,0a5.89,5.89,0,0,0-5.89,5.89Z" style="fill:#482fea"/><path d="M133.08,632.19a49.73,49.73,0,0,1,8.59,28V716a55.81,55.81,0,0,1,111.61,0V660.21a49.78,49.78,0,0,1,8.59-28,101.85,101.85,0,0,0-8.59-6,105.54,105.54,0,0,0-120.2,6Z" style="fill:#f79cc5"/><path d="M116.23,705.81v5.24c0-1.76.07-3.5.16-5.24Z" style="fill:#242f93"/><path d="M130.19,692.8c.11,2,.16,3.93.16,5.91V692.8Z" style="fill:#242f93"/><path d="M634.51,705.81q.16,2.94.16,5.91v-5.91Z" style="fill:#242f93"/><path d="M226,698.71c0,.23,0,.46,0,.68V698C226,698.26,226,698.48,226,698.71Z" style="fill:#242f93"/><path d="M226,692.8V698c0-1.75.06-3.5.16-5.23Z" style="fill:#242f93"/><path d="M634.51,705.81q.16,2.94.16,5.91v-5.91Z" style="fill:#242f93"/><path d="M840.36,610.6a84.41,84.41,0,0,0-42,10.92,76.43,76.43,0,0,0-28,26.41,73,73,0,0,0-28.3-27c-12.74-6.87-27.41-10.35-43.6-10.35a82.07,82.07,0,0,0-35.21,7.54,71.71,71.71,0,0,0-23.11,17h0a21.58,21.58,0,0,0-21.58-21.58H585V821.27h55.12V706.72c0-15.43,4-27.35,11.85-35.45s18.77-12.18,32.47-12.18c13.44,0,24.17,4.1,31.9,12.17s11.67,20,11.67,35.46V821.27h55.13V706.72c0-15.43,4-27.35,11.85-35.45s18.64-12.18,32.09-12.18,24.18,4.1,31.9,12.17,11.68,20,11.68,35.46V821.27h55.12V699.72c0-27.87-7.92-49.93-23.55-65.57S865.79,610.6,840.36,610.6Z" style="fill:#482fea"/><path d="M1119.07,639.78a85.1,85.1,0,0,0-25.21-20.13c-11.64-6.25-25.38-9.42-40.83-9.42a91.47,91.47,0,0,0-48.28,13.16c-14.34,8.73-25.85,21.37-34.19,37.56S958,695.84,958,716.67c0,21.08,4.22,40,12.54,56.28s19.84,29.13,34.17,38.1a89,89,0,0,0,47.94,13.54c15.45,0,29.31-3.24,41.19-9.61a81,81,0,0,0,24.86-20.05v26.34h55.5V613.55H1149.6A30.93,30.93,0,0,0,1119.07,639.78Zm-97.49,45.87A51.33,51.33,0,0,1,1092.33,666a50.55,50.55,0,0,1,19.24,20c4.75,8.68,7.15,19.24,7.15,31.41s-2.4,22.74-7.15,31.4a50.42,50.42,0,0,1-19.24,20,51.62,51.62,0,0,1-26,7,49.07,49.07,0,0,1-25.45-7.12,52.94,52.94,0,0,1-19.26-20.53c-4.87-8.91-7.34-19.47-7.34-31.41S1016.72,694.31,1021.58,685.65Z" style="fill:#482fea"/><path d="M1424.48,660.76c-8.35-16.07-19.85-28.64-34.19-37.37A91.5,91.5,0,0,0,1342,610.23c-15.22,0-29,3.23-40.83,9.61a83,83,0,0,0-24.86,19.79V613.55h-55.13v305h55.13V795.34a88.59,88.59,0,0,0,25.23,19.82c11.64,6.26,25.25,9.43,40.46,9.43a89.65,89.65,0,0,0,48.3-13.54c14.33-9,25.83-21.79,34.17-38.1S1437,737.74,1437,716.67,1432.8,676.79,1424.48,660.76Zm-51,87.49a53.21,53.21,0,0,1-19.26,20.36,50.26,50.26,0,0,1-51.29.17,51.78,51.78,0,0,1-19.25-20.16c-4.87-8.77-7.33-19.28-7.33-31.21s2.46-22.43,7.33-31.22A51.82,51.82,0,0,1,1302.9,666a50,50,0,0,1,25.47-6.95,51.84,51.84,0,0,1,25.85,6.77,50.92,50.92,0,0,1,19.24,19.79c4.86,8.67,7.33,19.11,7.33,31C1380.79,728.84,1378.32,739.47,1373.45,748.25Z" style="fill:#482fea"/><path d="M522.62,688.36H409.83a38,38,0,0,0-38,38,9.06,9.06,0,0,0,9.05,9H493.7a38,38,0,0,0,38-38A9.06,9.06,0,0,0,522.62,688.36Z" style="fill:#f79cc5"/></g></svg>