<svg xmlns="http://www.w3.org/2000/svg" viewBox="0 0 1080 1080"><g id="Layer_1" data-name="Layer 1"><path d="M255.18,561.93q.19,3.33.19,6.71v-6.71Z" style="fill:#242f93"/><path d="M540,974.28H910.93A63.33,63.33,0,0,0,974.26,911V540a432,432,0,0,1-82,254C813.43,903.2,685,974.28,540,974.28Z" style="fill:#f79cc5"/><path d="M105.74,515.72h.65c-.4,7.13-.65,14.29-.65,21.49v5.61a431.79,431.79,0,0,0,82,251.16C266.57,903.2,395,974.28,540,974.28S813.43,903.2,892.25,794a432,432,0,0,0,82-254c0-8.14-.22-16.25-.69-24.28h.69V131.52a24.2,24.2,0,0,0-24.17-24.21c-.66,0-1.27,0-1.89.08h-.1a.42.42,0,0,0-.19,0c-.43,0-.9.11-1.34.18a.91.91,0,0,0-.32,0,204.86,204.86,0,0,0-176.93,203.1V540c0,126.63-102.67,229.3-229.3,229.3S310.72,666.63,310.72,540V310.74a204.92,204.92,0,0,0-176.9-203.1,1.89,1.89,0,0,0-.5-.07,12.61,12.61,0,0,0-1.27-.15.27.27,0,0,0-.15,0h-.1c-.62,0-1.24-.08-1.85-.08a24.24,24.24,0,0,0-24.21,24.21Z" style="fill:#482fea"/><path d="M275.4,195.62a204.21,204.21,0,0,1,35.32,115.12V540c0-126.63,102.67-229.3,229.3-229.3S769.32,413.37,769.32,540V310.74A204.42,204.42,0,0,1,804.6,195.65a414.32,414.32,0,0,0-35.28-24.46,434.48,434.48,0,0,0-458.6-.07A421.29,421.29,0,0,0,275.4,195.62Z" style="fill:#f79cc5"/><path d="M239.34,576.71v5.94c0-2,.07-4,.18-5.94Z" style="fill:#242f93"/><path d="M255.18,561.93q.19,3.33.19,6.71v-6.71Z" style="fill:#242f93"/><path d="M827.77,576.71q.19,3.33.19,6.71v-6.71Z" style="fill:#242f93"/><path d="M364,568.64c0,.26,0,.52,0,.78v-1.55C364,568.13,364,568.38,364,568.64Z" style="fill:#242f93"/><path d="M364,561.93v5.94c0-2,.07-4,.18-5.94Z" style="fill:#242f93"/><path d="M827.77,576.71q.19,3.33.19,6.71v-6.71Z" style="fill:#242f93"/></g></svg>