<svg width="28" height="25" viewBox="0 0 28 25" fill="none" xmlns="http://www.w3.org/2000/svg">
<path d="M10.5227 9.81533C12.6808 9.81533 14.4303 8.06581 14.4303 5.90766C14.4303 3.74952 12.6808 2 10.5227 2C8.36451 2 6.61499 3.74952 6.61499 5.90766C6.61499 8.06581 8.36451 9.81533 10.5227 9.81533Z" stroke="black" stroke-width="3" stroke-linecap="round" stroke-linejoin="round"/>
<path d="M17.3611 9.81533C19.5192 9.81533 21.2687 8.06581 21.2687 5.90766C21.2687 3.74952 19.5192 2 17.3611 2" stroke="black" stroke-width="3" stroke-linecap="round" stroke-linejoin="round"/>
<path d="M19.5845 23C19.5845 18.1442 15.6481 14.2078 10.7922 14.2078C5.93642 14.2078 2 18.1442 2 23" stroke="black" stroke-width="3" stroke-linecap="round"/>
<path d="M26.4229 23C26.4229 19.1718 23.9763 15.915 20.5614 14.708" stroke="black" stroke-width="3" stroke-linecap="round"/>
</svg>
